<?xml version="1.0" encoding="UTF-8" standalone="no"?>
<!-- Created with Inkscape (http://www.inkscape.org/) -->

<svg
   width="27.712004mm"
   height="27.712008mm"
   viewBox="0 0 27.712004 27.712008"
   version="1.1"
   id="svg1"
   xml:space="preserve"
   xmlns="http://www.w3.org/2000/svg"
   xmlns:svg="http://www.w3.org/2000/svg"><defs
     id="defs1" /><g
     id="layer1"
     transform="translate(-131.27155,60.714552)"><circle
       style="fill:#d8e5ee;fill-opacity:1;stroke:#000000;stroke-width:0.602721;stroke-linejoin:round;stroke-dasharray:none;stroke-opacity:1"
       id="path5"
       cx="145.12755"
       cy="-46.858547"
       r="5.4713845" /><circle
       style="fill:#1d3342;fill-opacity:1;stroke:none;stroke-width:0.205325;stroke-linejoin:round;stroke-dasharray:none;stroke-opacity:1"
       id="path5-6"
       cx="145.12755"
       cy="-46.858547"
       r="1.8639019" /><g
       id="g10-0-6"
       transform="matrix(0,-1.175235,1.175235,0,35.435143,124.58477)"><rect
         style="fill:#2c3bac;fill-opacity:1;stroke:#2c3bac;stroke-width:0.320991;stroke-linecap:round;stroke-linejoin:round;stroke-dasharray:none;stroke-opacity:1"
         id="rect4-1-3-1-1-9-6-7-4-7-1"
         width="6.2564244"
         height="3.0650291"
         x="142.75182"
         y="83.674881"
         ry="0.28431755" /><rect
         style="fill:#2fbb2b;fill-opacity:1;stroke:none;stroke-width:0.320991;stroke-linecap:round;stroke-linejoin:round;stroke-dasharray:none;stroke-opacity:1"
         id="rect5-8-5-9-1-0-3-8-5-2-3"
         width="1.4036551"
         height="2.3982778"
         x="143.17929"
         y="83.95919"
         ry="0" /><rect
         style="fill:#2fbb2b;fill-opacity:1;stroke:none;stroke-width:0.320991;stroke-linecap:round;stroke-linejoin:round;stroke-dasharray:none;stroke-opacity:1"
         id="rect5-3-4-4-1-4-7-6-6-4-3-2"
         width="1.4036551"
         height="2.3982778"
         x="145.1537"
         y="83.95919"
         ry="0" /><rect
         style="fill:#2fbb2b;fill-opacity:1;stroke:none;stroke-width:0.320991;stroke-linecap:round;stroke-linejoin:round;stroke-dasharray:none;stroke-opacity:1"
         id="rect5-3-1-2-1-4-0-7-2-8-1-6-0"
         width="1.4036551"
         height="2.3982778"
         x="147.12813"
         y="83.95919"
         ry="0" /></g><ellipse
       style="fill:#54aa3a;fill-opacity:1;stroke:#2c3bac;stroke-width:0.467;stroke-linecap:round;stroke-linejoin:round;stroke-dasharray:none;stroke-opacity:1"
       id="path4-4-3-8-1-3-7-0-7-2-5-8"
       cx="154.65916"
       cy="-46.987522"
       rx="1.734109"
       ry="1.7969171" /><path
       style="fill:#ff0000;fill-opacity:1;stroke-width:0.139074"
       d="m 145.10921,-35.997483 c -4.63533,-0.002 -5.43,-0.0101 -5.5552,-0.0559 -0.0804,-0.0294 -0.19421,-0.0986 -0.25301,-0.15378 -0.0588,-0.0552 -0.1376,-0.16655 -0.17508,-0.24751 -0.0633,-0.13675 -0.0682,-0.27304 -0.069,-1.9238 -9.5e-4,-1.5242 0.007,-1.79606 0.0563,-1.91343 0.0314,-0.0752 0.10181,-0.18381 0.15639,-0.24127 0.0546,-0.0575 0.14891,-0.13198 0.20963,-0.16559 0.10125,-0.056 0.56249,-0.0619 5.5726,-0.0709 4.83523,-0.009 5.48178,-0.003 5.63267,0.0468 0.0937,0.0311 0.22217,0.11006 0.28539,0.17538 0.0632,0.0653 0.14062,0.18033 0.172,0.25557 0.0489,0.11727 0.057,0.39048 0.0563,1.91342 -9.5e-4,1.63887 -0.006,1.78806 -0.0678,1.92413 -0.0368,0.0811 -0.12711,0.20027 -0.20056,0.26476 -0.0735,0.0645 -0.19611,0.13464 -0.27256,0.15587 -0.0943,0.0262 -1.87939,0.0378 -5.5481,0.0362 z m -1.50867,-1.17469 h 0.79113 v -0.16558 -0.16559 h -0.62554 -0.62554 v -1.1039 -1.1039 h -0.16559 -0.16558 v 1.26948 1.26949 z m 1.39828,0 h 0.16558 v -1.26949 -1.26948 h -0.16558 -0.16559 v 1.26948 1.26949 z m 1.6606,-0.007 0.17109,-0.0113 0.49121,-1.25108 c 0.27017,-0.6881 0.4914,-1.25614 0.49162,-1.2623 2.5e-4,-0.006 -0.0779,-0.006 -0.17361,0 l -0.17402,0.0112 -0.21208,0.57034 c -0.11665,0.3137 -0.2979,0.80639 -0.40279,1.09488 l -0.19071,0.52454 -0.39061,-1.09488 -0.39061,-1.09488 -0.19511,-0.0113 c -0.1073,-0.006 -0.1866,0.002 -0.17622,0.0193 0.0104,0.0168 0.22451,0.56 0.47584,1.20713 0.25133,0.64712 0.46775,1.20648 0.48093,1.24302 0.0193,0.0535 0.0572,0.0642 0.19507,0.0552 z m 2.42137,-0.001 0.92237,-0.01 v -0.14719 -0.14719 l -0.77273,-0.01 -0.77273,-0.01 0.007,-0.41326 0.007,-0.41326 0.69255,-0.0184 0.69256,-0.0184 v -0.13802 -0.13801 l -0.6875,3e-5 -0.68749,2e-5 -0.0116,-0.37119 c -0.006,-0.20415 -0.005,-0.37802 0.004,-0.38637 0.008,-0.008 0.34375,-0.0152 0.74513,-0.0152 h 0.72981 v -0.14723 -0.14719 h -0.91994 -0.91991 v 1.24495 c 0,0.68472 0.0113,1.25627 0.0251,1.2701 0.0138,0.0138 0.44021,0.0208 0.94751,0.0153 z m -8.01921,-0.32484 c 0.13651,4.8e-4 0.27727,-0.025 0.36878,-0.0666 0.0814,-0.037 0.19901,-0.11824 0.26135,-0.18058 0.0623,-0.0623 0.14477,-0.17661 0.18317,-0.25393 0.047,-0.0946 0.0698,-0.21882 0.0698,-0.37976 0,-0.16094 -0.0229,-0.28516 -0.0698,-0.37976 -0.0384,-0.0773 -0.12082,-0.19159 -0.18317,-0.25393 -0.0623,-0.0623 -0.17995,-0.1436 -0.26135,-0.18058 -0.086,-0.0391 -0.2347,-0.0676 -0.35509,-0.068 -0.11389,-4.8e-4 -0.26645,0.024 -0.339,0.0543 -0.0725,0.0303 -0.19145,0.1074 -0.26424,0.1713 -0.0728,0.0639 -0.16745,0.18398 -0.21038,0.26685 -0.0561,0.10826 -0.0781,0.218 -0.0781,0.38985 0,0.17185 0.022,0.28159 0.0781,0.38985 0.0429,0.0829 0.13984,0.20491 0.21535,0.27122 0.0755,0.0663 0.18826,0.14273 0.25055,0.16986 0.0623,0.0271 0.2126,0.0496 0.33403,0.0499 z"
       id="path9-1" /><path
       style="fill:#ff0000;fill-opacity:1;stroke-width:0.126191"
       d="m 143.77976,-54.648863 c -0.51217,-0.008 -1.02927,0.02429 -1.53851,-0.02296 -0.32971,-0.06651 -0.52674,-0.413823 -0.39808,-0.726096 0.1775,-0.455908 0.47397,-0.855326 0.70114,-1.287255 0.68442,-1.175324 1.34085,-2.367329 2.04957,-3.528259 0.16004,-0.2803 0.56687,-0.564536 0.84879,-0.273096 0.30007,0.39807 0.52684,0.850313 0.7874,1.276289 0.67453,1.144407 1.30771,2.312568 1.9764,3.460201 0.18993,0.259517 0.41453,0.726493 0.0523,0.944649 -0.25833,0.178772 -0.59467,0.09804 -0.88944,0.129429 -1.19644,0.01593 -2.39302,0.01807 -3.58951,0.0271 z m 1.32701,-0.642846 c 0.43699,0.03446 0.68494,-0.590472 0.32659,-0.853749 -0.281,-0.272066 -0.83401,-0.03274 -0.78314,0.369471 -0.0131,0.261339 0.20374,0.467311 0.45655,0.484278 z m 0.34771,-1.268626 c 0.0774,-0.819516 0.10704,-1.644285 0.13377,-2.467083 -0.30231,-0.04625 -0.62123,-0.05345 -0.92354,-0.0059 0.004,0.824211 0.0683,1.648038 0.12125,2.470656 0.22258,0.0024 0.44681,0.02499 0.66852,0.0023 z"
       id="path10-4-1-3" /><circle
       style="fill:none;fill-opacity:1;stroke:#505050;stroke-width:0.215;stroke-linejoin:round;stroke-dasharray:none;stroke-opacity:0"
       id="path5-60"
       cx="145.12755"
       cy="-46.858547"
       r="13.748503" /></g></svg>
