<?xml version="1.0" encoding="UTF-8" standalone="no"?>
<!-- Created with Inkscape (http://www.inkscape.org/) -->

<svg
   width="40.462402mm"
   height="30.235977mm"
   viewBox="0 0 40.462402 30.235977"
   version="1.1"
   id="svg1"
   xml:space="preserve"
   xmlns="http://www.w3.org/2000/svg"
   xmlns:svg="http://www.w3.org/2000/svg"><defs
     id="defs1" /><g
     id="layer1"
     transform="translate(15.875,175.61172)"><ellipse
       style="fill:#d13a3a;fill-opacity:1;stroke:#161e58;stroke-width:0.366787;stroke-linecap:round;stroke-linejoin:round;stroke-dasharray:none;stroke-opacity:1"
       id="path4-4-3-8-2-5"
       cx="12.776679"
       cy="-173.63141"
       rx="1.734109"
       ry="1.7969171" /><g
       id="g10-83-1"
       transform="translate(-146.85135,-258.8388)"><rect
         style="fill:#2c3bac;fill-opacity:1;stroke:#2c3bac;stroke-width:0.320991;stroke-linecap:round;stroke-linejoin:round;stroke-dasharray:none;stroke-opacity:1"
         id="rect4-1-3-1-1-9-6-7-4-5-2"
         width="6.2564244"
         height="3.0650291"
         x="142.75182"
         y="83.674881"
         ry="0.28431755" /><rect
         style="fill:#2fbb2b;fill-opacity:1;stroke:none;stroke-width:0.320991;stroke-linecap:round;stroke-linejoin:round;stroke-dasharray:none;stroke-opacity:1"
         id="rect5-8-5-9-1-0-3-8-5-3-3"
         width="1.4036551"
         height="2.3982778"
         x="143.17929"
         y="83.95919"
         ry="0" /><rect
         style="fill:#2fbb2b;fill-opacity:1;stroke:none;stroke-width:0.320991;stroke-linecap:round;stroke-linejoin:round;stroke-dasharray:none;stroke-opacity:1"
         id="rect5-3-4-4-1-4-7-6-6-4-4-7"
         width="1.4036551"
         height="2.3982778"
         x="145.1537"
         y="83.95919"
         ry="0" /><rect
         style="fill:#2fbb2b;fill-opacity:1;stroke:none;stroke-width:0.320991;stroke-linecap:round;stroke-linejoin:round;stroke-dasharray:none;stroke-opacity:1"
         id="rect5-3-1-2-1-4-0-7-2-8-1-5-1"
         width="1.4036551"
         height="2.3982778"
         x="147.12813"
         y="83.95919"
         ry="0" /></g><path
       style="fill:#d13a3a;fill-opacity:1;stroke-width:0.670779"
       d="m -11.64334,-152.27797 c -0.362084,0.0419 -0.628825,-0.11549 -1.149569,-0.67831 -0.372937,-0.40309 -0.823809,-0.94675 -1.001944,-1.20816 -0.17812,-0.26141 -0.557278,-0.92823 -0.842563,-1.48182 -0.285285,-0.5536 -0.680449,-1.59023 -0.878143,-2.30363 -0.259394,-0.93607 -0.359441,-1.83435 -0.359441,-3.2273 0,-1.16919 0.109564,-2.36013 0.27789,-3.02066 0.152845,-0.59976 0.586265,-1.7294 0.963158,-2.5103 0.376902,-0.78089 1.096809,-1.87904 1.599811,-2.4403 0.628586,-0.70142 1.046889,-1.02049 1.337803,-1.02049 0.24305,0 0.504958,0.15267 0.615171,0.35861 0.105557,0.19724 0.132025,0.45681 0.0588,0.5768 -0.07323,0.12 -0.47733,0.64193 -0.898037,1.15985 -0.420707,0.51792 -0.996596,1.4006 -1.279748,1.96152 -0.283152,0.56092 -0.65733,1.49487 -0.8315,2.07544 -0.212455,0.70812 -0.31669,1.63976 -0.31669,2.83035 0,1.18966 0.104655,2.12583 0.317439,2.83963 0.174599,0.58567 0.599705,1.60393 0.944671,2.2628 0.344967,0.65887 0.942243,1.55582 1.327269,1.99324 0.522338,0.59341 0.685712,0.92005 0.643572,1.28674 -0.04399,0.3821 -0.161375,0.50357 -0.527963,0.54599 z m 1.851353,-1.74054 c -0.154433,0 -0.592735,-0.33788 -0.973992,-0.75086 -0.381262,-0.41297 -0.969007,-1.31144 -1.306116,-1.99662 -0.337114,-0.68516 -0.730298,-1.8048 -0.873764,-2.48809 -0.143446,-0.68328 -0.26083,-1.5618 -0.26083,-1.95224 0,-0.39045 0.115657,-1.25576 0.257023,-1.92293 0.141352,-0.66715 0.452184,-1.63932 0.690735,-2.16038 0.238546,-0.52106 0.77085,-1.3939 1.182883,-1.93963 0.412034,-0.54574 0.939428,-1.04 1.171992,-1.09838 0.232549,-0.0584 0.541592,-0.007 0.686746,0.11291 0.145149,0.12046 0.263917,0.37925 0.263917,0.5751 0,0.19585 -0.276736,0.66239 -0.614962,1.03676 -0.33822,0.37438 -0.818075,1.08153 -1.066338,1.57145 -0.248264,0.48992 -0.570522,1.34815 -0.71612,1.90716 -0.145608,0.55901 -0.264738,1.39501 -0.264738,1.85775 0,0.46275 0.0906,1.26458 0.201268,1.78186 0.1107,0.51726 0.391605,1.34294 0.62424,1.83483 0.232635,0.49189 0.741038,1.27927 1.129799,1.74973 0.388767,0.47045 0.706851,0.96077 0.706851,1.08959 0,0.12882 -0.125509,0.35971 -0.278902,0.5131 -0.153388,0.15339 -0.405259,0.27889 -0.559692,0.27889 z m 1.972462,-2.12973 c -0.224534,0 -0.600716,-0.24675 -0.879297,-0.57678 -0.267786,-0.31725 -0.70687,-1.04091 -0.975743,-1.60814 -0.268859,-0.56723 -0.543105,-1.49891 -0.609442,-2.07039 -0.0716,-0.61728 -0.03382,-1.45938 0.09314,-2.07451 0.117537,-0.5695 0.374817,-1.35493 0.571739,-1.74536 0.196911,-0.39044 0.593712,-1.0094 0.88175,-1.37544 0.323651,-0.41128 0.673979,-0.66554 0.917015,-0.66554 0.2163,0 0.489123,0.0958 0.606254,0.21297 0.117136,0.11713 0.212966,0.3506 0.212966,0.51881 0,0.16821 -0.191464,0.5334 -0.425492,0.81152 -0.234023,0.27812 -0.598612,0.83781 -0.810213,1.24376 -0.211586,0.40594 -0.429647,1.17348 -0.484563,1.70562 -0.05536,0.53604 -0.0019,1.37632 0.120022,1.88413 0.12734,0.53078 0.510397,1.30322 0.910069,1.83515 0.379602,0.50519 0.690177,1.04448 0.690177,1.1984 0,0.15393 -0.09588,0.37571 -0.212966,0.49283 -0.117131,0.11714 -0.389558,0.21297 -0.605391,0.21297 z"
       id="path6-5-7-3" /><path
       style="fill:#d13a3a;fill-opacity:1;stroke-width:0.670779"
       d="m 20.355745,-169.46018 c 0.362084,-0.0419 0.628825,0.1155 1.149569,0.67832 0.372937,0.40309 0.823809,0.94674 1.001943,1.20816 0.17812,0.26141 0.557279,0.92823 0.842564,1.48182 0.285284,0.5536 0.680449,1.59023 0.878143,2.30363 0.259394,0.93607 0.359441,1.83435 0.359441,3.2273 0,1.16918 -0.109565,2.36013 -0.27789,3.02066 -0.152845,0.59976 -0.586266,1.7294 -0.963158,2.5103 -0.376902,0.78089 -1.09681,1.87903 -1.599811,2.4403 -0.628587,0.70141 -1.046889,1.02049 -1.337803,1.02049 -0.24305,0 -0.504958,-0.15268 -0.615171,-0.35862 -0.105558,-0.19723 -0.132026,-0.4568 -0.0588,-0.5768 0.07323,-0.11999 0.47733,-0.64192 0.898037,-1.15984 0.420706,-0.51792 0.996595,-1.4006 1.279748,-1.96152 0.283152,-0.56093 0.65733,-1.49487 0.831499,-2.07544 0.212455,-0.70813 0.316691,-1.63976 0.316691,-2.83036 0,-1.18965 -0.104655,-2.12582 -0.31744,-2.83962 -0.174599,-0.58568 -0.599704,-1.60394 -0.944671,-2.2628 -0.344966,-0.65887 -0.942242,-1.55582 -1.327269,-1.99325 -0.522337,-0.59341 -0.685711,-0.92005 -0.643571,-1.28674 0.04399,-0.38209 0.161375,-0.50356 0.527962,-0.54599 z m -1.851353,1.74055 c 0.154433,0 0.592734,0.33787 0.973992,0.75085 0.381262,0.41298 0.969006,1.31145 1.306116,1.99662 0.337114,0.68517 0.730298,1.80481 0.873763,2.48809 0.143447,0.68328 0.26083,1.5618 0.26083,1.95225 0,0.39044 -0.115656,1.25576 -0.257023,1.92292 -0.141352,0.66716 -0.452184,1.63933 -0.690734,2.16039 -0.238546,0.52106 -0.77085,1.3939 -1.182883,1.93963 -0.412034,0.54574 -0.939428,1.04 -1.171992,1.09837 -0.232549,0.0584 -0.541592,0.007 -0.686746,-0.1129 -0.14515,-0.12046 -0.263917,-0.37926 -0.263917,-0.5751 0,-0.19585 0.276736,-0.66239 0.614961,-1.03677 0.338221,-0.37437 0.818075,-1.08152 1.066339,-1.57145 0.248264,-0.48992 0.570522,-1.34814 0.71612,-1.90715 0.145607,-0.55902 0.264737,-1.39501 0.264737,-1.85776 0,-0.46274 -0.0906,-1.26458 -0.201267,-1.78185 -0.1107,-0.51727 -0.391606,-1.34294 -0.624241,-1.83484 -0.232635,-0.49188 -0.741037,-1.27927 -1.129799,-1.74972 -0.388766,-0.47046 -0.70685,-0.96077 -0.70685,-1.08959 0,-0.12882 0.125508,-0.35972 0.278902,-0.51311 0.153388,-0.15338 0.405259,-0.27888 0.559692,-0.27888 z m -1.972463,2.12972 c 0.224535,0 0.600716,0.24675 0.879298,0.57679 0.267786,0.31725 0.706869,1.0409 0.975743,1.60814 0.268859,0.56723 0.543104,1.49891 0.609441,2.07039 0.0716,0.61728 0.03383,1.45938 -0.09314,2.0745 -0.117537,0.56951 -0.374818,1.35493 -0.571739,1.74537 -0.196912,0.39044 -0.593712,1.0094 -0.88175,1.37543 -0.323651,0.41129 -0.67398,0.66554 -0.917015,0.66554 -0.2163,0 -0.489124,-0.0958 -0.606255,-0.21297 -0.117135,-0.11712 -0.212965,-0.3506 -0.212965,-0.51881 0,-0.1682 0.191464,-0.53339 0.425492,-0.81151 0.234023,-0.27813 0.598612,-0.83781 0.810213,-1.24376 0.211586,-0.40594 0.429647,-1.17348 0.484563,-1.70563 0.05535,-0.53604 0.0019,-1.37631 -0.120022,-1.88412 -0.127341,-0.53078 -0.510397,-1.30322 -0.910069,-1.83515 -0.379602,-0.50519 -0.690177,-1.04448 -0.690177,-1.19841 0,-0.15392 0.09588,-0.3757 0.212965,-0.49283 0.117131,-0.11714 0.389559,-0.21297 0.605392,-0.21297 z"
       id="path6-5-7-4-7" /><g
       id="g1"
       style="fill:#2c3bac;fill-opacity:1"><path
         style="fill:#2c3bac;fill-opacity:1;stroke:none;stroke-width:0.366787;stroke-dasharray:none;stroke-opacity:1"
         d="m 4.302658,-158.66122 c -0.829768,-0.0111 -1.662112,0.0265 -2.49001,-0.0365 -0.316548,-0.0606 -0.632847,-0.29996 -0.655293,-0.64389 -0.03526,-0.47575 0.156699,-0.9339 0.276001,-1.38659 0.155215,-0.65547 0.617466,-1.18775 1.153887,-1.57226 0.11526,-0.0588 0.235511,-0.17307 0.352456,-0.19486 0.599662,0.43204 1.405872,0.57622 2.105919,0.32049 0.227263,-0.0794 0.436374,-0.19886 0.636468,-0.33088 0.670831,0.37246 1.269538,0.95975 1.469131,1.71998 0.127913,0.45526 0.308876,0.91401 0.303338,1.3931 -0.0033,0.32804 -0.261322,0.5721 -0.555132,0.67119 -0.569835,0.0947 -1.153891,0.0433 -1.729771,0.06 -0.288996,3.5e-4 -0.577997,1.9e-4 -0.866994,1.9e-4 z m 0.07476,-3.75461 c -0.635642,0.0603 -1.247889,-0.29297 -1.599282,-0.81036 -0.271297,-0.34708 -0.329991,-0.80039 -0.277747,-1.22651 0.01779,-0.53111 0.366908,-1.00907 0.78874,-1.30657 0.52406,-0.36464 1.239044,-0.41315 1.807625,-0.122 0.592715,0.27333 1.033363,0.8998 1.014004,1.5632 0.07031,0.5029 -0.142865,1.003 -0.500049,1.35206 -0.314844,0.34034 -0.769237,0.5446 -1.233291,0.55018 z"
         id="path2-0-9-9" /><path
         d="m 4.6527167,-145.38958 c -1.80489,0.068 -3.73816997,-0.0869 -5.29164997,-1.0895 -1.15067003,-0.73043 0.007,-1.89831 0.92,-2.11713 0.44214,-0.0452 1.05768997,-0.59265 1.43038997,-0.22536 0.7722,0.65262 1.41869,1.58812 2.44822,1.81011 1.11842,0.0782 1.80839,-0.96388 2.58358,-1.61356 0.24038,-0.37372 0.57017,-0.3883 0.94828,-0.20874 0.81839,0.26522 1.85141,0.58884 2.14172,1.49544 -0.24173,1.12896 -1.5818,1.41726 -2.53729,1.69197 -0.86145,0.21883 -1.76044,0.22413 -2.64325,0.25677 z m -0.34092,-2.07905 c -1.05215,-0.28658 -1.70953,-1.34458 -2.52115,-2.03241 -2.90009,-2.92053 -5.17142,-6.65111 -5.7878,-10.76704 -0.0622,-1.71834 -0.24823,-3.52659 0.48976,-5.13901 1.15112,-2.80502 3.92132003,-5.00764 6.98505,-5.18891 1.43905,-0.0565 2.93854,-0.0483 4.23978,0.65779 3.1249303,1.28047 5.2190503,4.6213 5.0496703,7.98852 -0.032,4.26551 -2.16357,8.214 -4.8913403,11.37763 -0.98277,1.04747 -1.94511,2.14695 -3.12232,2.98051 -0.14208,0.0564 -0.28726,0.11195 -0.44165,0.12292 z m 0.29507,-9.39263 c 2.69123,-0.0532 5.06912,-2.45749 5.07395,-5.15089 0.2337,-2.94125 -2.4478,-5.71016 -5.39489,-5.56277 -2.38128,-0.058 -4.59093997,1.72364 -5.15184,4.02197 -0.76869,2.62695 0.90041003,5.63129 3.50963,6.43013 0.6317,0.20709 1.29718,0.33429 1.96315,0.26156 z"
         style="fill:#2c3bac;fill-opacity:1;stroke:none;stroke-width:0.366787;stroke-dasharray:none;stroke-opacity:1"
         id="path1-5-6-1-3-5-7-8-4-3" /></g></g></svg>
